<svg width="37" height="36" viewBox="0 0 37 36" fill="none" xmlns="http://www.w3.org/2000/svg">
<path fill-rule="evenodd" clip-rule="evenodd" d="M15.2997 0.956991C15.2997 0.352157 14.757 -0.110619 14.1672 0.0231976C6.05555 1.86346 0 9.11756 0 17.786C0 21.5043 1.11418 24.9624 3.0269 27.8445C3.39264 28.3956 4.18686 28.3834 4.5746 27.8476C4.82468 27.5019 4.82288 27.0367 4.58937 26.6797C2.91744 24.1236 1.94539 21.0683 1.94539 17.786C1.94539 10.0803 7.30269 3.62595 14.4959 1.94425C14.9585 1.83608 15.2997 1.43215 15.2997 0.956991ZM21.4925 1.04504C21.4925 1.51235 21.8224 1.91208 22.275 2.02839C29.2949 3.83226 34.4826 10.2033 34.4826 17.786C34.4826 21.019 33.5395 24.0316 31.9136 26.564C31.6847 26.9205 31.6849 27.3819 31.9333 27.7251C32.3231 28.2639 33.1227 28.273 33.4857 27.7158C35.3466 24.8597 36.428 21.4491 36.428 17.786C36.428 9.25506 30.563 2.09395 22.6452 0.11484C22.0498 -0.0339978 21.4925 0.431267 21.4925 1.04504ZM18.214 34.0546C21.1219 34.0546 23.8516 33.2917 26.2139 31.955C26.6649 31.6999 27.2423 31.8061 27.5461 32.2259C27.8729 32.6776 27.7566 33.3132 27.2731 33.5909C24.6049 35.1235 21.5118 36 18.214 36C14.9679 36 11.9202 35.1508 9.28077 33.6625C8.79238 33.3872 8.67282 32.7477 9.0015 32.2935C9.30353 31.8761 9.87652 31.7682 10.3269 32.0183C12.6631 33.3157 15.3523 34.0546 18.214 34.0546Z" fill="#AAAAAA"/>
<path fill-rule="evenodd" clip-rule="evenodd" d="M24.2667 12.6546C24.7974 12.3482 24.9293 11.6357 24.4837 11.2152C21.6804 8.56938 17.3696 7.95026 13.8601 9.97646C12.4956 10.7643 11.4168 11.8569 10.6601 13.1188C10.3116 13.7001 10.7284 14.4004 11.4027 14.47C11.8199 14.513 12.2148 14.291 12.4415 13.938C13.0262 13.0276 13.8312 12.2395 14.8328 11.6612C17.5154 10.1124 20.7963 10.5382 22.9923 12.4877C23.345 12.8008 23.8582 12.8904 24.2667 12.6546ZM25.7383 15.3209C25.3371 15.5525 25.1557 16.029 25.238 16.4849C25.7492 19.3136 24.4755 22.2832 21.8429 23.8031C20.8613 24.3699 19.7995 24.6722 18.7402 24.7323C18.3246 24.7558 17.9394 24.9867 17.7694 25.3666C17.4908 25.9891 17.8947 26.7038 18.5765 26.6862C20.0207 26.649 21.4765 26.261 22.8156 25.4879C26.2613 23.4985 27.8849 19.565 27.1007 15.8728C26.9713 15.2635 26.2777 15.0094 25.7383 15.3209ZM12.2669 21.2372C12.7906 22.1443 13.4863 22.89 14.2891 23.457C14.7116 23.7554 14.9088 24.3046 14.6975 24.7767C14.4689 25.2876 13.8557 25.5073 13.3889 25.1984C12.269 24.4573 11.2992 23.452 10.5821 22.2099C9.87842 20.9911 9.49379 19.6755 9.40233 18.3601C9.36326 17.7982 9.86211 17.3721 10.4223 17.4299C10.9338 17.4826 11.31 17.923 11.3613 18.4346C11.4573 19.3937 11.7537 20.3483 12.2669 21.2372Z" fill="#AAAAAA"/>
</svg>
